# xmcd CD database file
#
# Track frame offsets:
#	150
#	26070
#	41577
#	61612
#	78867
#	93620
#	109500
#	127752
#	140690
#	160145
#	178577
#	201475
#	217627
#	235992
#
# Disc length: 3365 seconds
#
# Revision: 19
# Processed by: cddbd v1.5.2PL0 Copyright (c) Steve Scherf et al.
# Submitted via: CDex 1.51
#
DISCID=b30d230e
DTITLE=班得瑞 - 仙境
DYEAR=2000
DGENRE=New Age
TTITLE0=变幻之风
TTITLE1=安妮的仙境
TTITLE2=巴格达之星
TTITLE3=曙光
TTITLE4=安妮之歌
TTITLE5=魔幻时刻
TTITLE6=阿迪玛斯
TTITLE7=你的笑靥
TTITLE8=普罗文斯
TTITLE9=小美人鱼
TTITLE10=三部曲
TTITLE11=钟爱一生
TTITLE12=曼蒂
TTITLE13=挚友
EXTD=YEAR: 2000
EXTT0=
EXTT1=
EXTT2=
EXTT3=
EXTT4=
EXTT5=
EXTT6=
EXTT7=
EXTT8=
EXTT9=
EXTT10=
EXTT11=
EXTT12=
EXTT13=
PLAYORDER=
